<?xml version="1.0" encoding="utf-8"?>
<!-- Generator: Adobe Illustrator 27.5.0, SVG Export Plug-In . SVG Version: 6.00 Build 0)  -->
<svg version="1.1" xmlns="http://www.w3.org/2000/svg" xmlns:xlink="http://www.w3.org/1999/xlink" x="0px" y="0px"
	 viewBox="0 0 500 500" style="enable-background:new 0 0 500 500;" xml:space="preserve">
<g id="Background_Simple">
	<g>
		<path style="fill:#92E3A9;" d="M240.941,16.78c0,0-76.858,3.898-126.472,68.973c-49.614,65.075-50.991,154.004-54.003,226.032
			c-3.012,72.028,39.193,126.529,101.049,133.718c61.856,7.189,78.531-48.114,147.928-79.234
			c69.397-31.12,92.53-28.892,134.056-92.794c41.526-63.902,12.477-162.13-62.793-212.522
			C305.437,10.561,240.941,16.78,240.941,16.78z"/>
		<path style="opacity:0.7;fill:#FFFFFF;" d="M240.941,16.78c0,0-76.858,3.898-126.472,68.973
			c-49.614,65.075-50.991,154.004-54.003,226.032c-3.012,72.028,39.193,126.529,101.049,133.718
			c61.856,7.189,78.531-48.114,147.928-79.234c69.397-31.12,92.53-28.892,134.056-92.794
			c41.526-63.902,12.477-162.13-62.793-212.522C305.437,10.561,240.941,16.78,240.941,16.78z"/>
	</g>
</g>
<g id="Speakers">
	<g>
		<path style="fill:#263238;" d="M90.907,358.139c-14.213,0-25.735,11.522-25.735,25.735c0,14.213,11.522,25.735,25.735,25.735
			c14.213,0,25.735-11.522,25.735-25.735C116.642,369.661,105.12,358.139,90.907,358.139z M90.907,393.183
			c-5.141,0-9.308-4.168-9.308-9.308c0-5.141,4.168-9.309,9.308-9.309c5.141,0,9.309,4.168,9.309,9.309
			C100.215,389.015,96.048,393.183,90.907,393.183z"/>
		<path style="fill:#263238;" d="M90.907,317.62c-8.77,0-15.879,7.109-15.879,15.879c0,8.77,7.109,15.879,15.879,15.879
			c8.77,0,15.879-7.109,15.879-15.879C106.786,324.729,99.676,317.62,90.907,317.62z M90.907,339.242
			c-3.172,0-5.743-2.572-5.743-5.744c0-3.172,2.571-5.743,5.743-5.743c3.172,0,5.744,2.571,5.744,5.743
			C96.65,336.671,94.079,339.242,90.907,339.242z"/>
		<path style="fill:none;stroke:#263238;stroke-miterlimit:10;" d="M120.021,417.096H61.792c-2.178,0-3.943-1.766-3.943-3.943
			v-99.727c0-2.178,1.765-3.943,3.943-3.943h58.229c2.178,0,3.943,1.765,3.943,3.943v99.727
			C123.964,415.331,122.199,417.096,120.021,417.096z"/>
	</g>
	<g>
		<path style="fill:#263238;" d="M404.875,358.139c-14.213,0-25.735,11.522-25.735,25.735c0,14.213,11.522,25.735,25.735,25.735
			c14.213,0,25.735-11.522,25.735-25.735C430.61,369.661,419.088,358.139,404.875,358.139z M404.875,393.183
			c-5.141,0-9.308-4.168-9.308-9.308c0-5.141,4.167-9.309,9.308-9.309c5.141,0,9.309,4.168,9.309,9.309
			C414.184,389.015,410.016,393.183,404.875,393.183z"/>
		<path style="fill:#263238;" d="M404.875,317.62c-8.77,0-15.879,7.109-15.879,15.879c0,8.77,7.109,15.879,15.879,15.879
			c8.77,0,15.879-7.109,15.879-15.879C420.754,324.729,413.645,317.62,404.875,317.62z M404.875,339.242
			c-3.172,0-5.743-2.572-5.743-5.744c0-3.172,2.571-5.743,5.743-5.743c3.172,0,5.744,2.571,5.744,5.743
			C410.619,336.671,408.047,339.242,404.875,339.242z"/>
		<path style="fill:none;stroke:#263238;stroke-miterlimit:10;" d="M433.989,417.096h-58.229c-2.178,0-3.943-1.766-3.943-3.943
			v-99.727c0-2.178,1.765-3.943,3.943-3.943h58.229c2.178,0,3.943,1.765,3.943,3.943v99.727
			C437.932,415.331,436.167,417.096,433.989,417.096z"/>
	</g>
</g>
<g id="Graphics">
	<g>
		
			<line style="fill:none;stroke:#263238;stroke-linecap:round;stroke-linejoin:round;stroke-miterlimit:10;" x1="151.835" y1="60.076" x2="151.835" y2="76.877"/>
		
			<line style="fill:none;stroke:#263238;stroke-linecap:round;stroke-linejoin:round;stroke-miterlimit:10;" x1="160.235" y1="68.476" x2="143.435" y2="68.476"/>
	</g>
	<g>
		
			<line style="fill:none;stroke:#263238;stroke-linecap:round;stroke-linejoin:round;stroke-miterlimit:10;" x1="115.083" y1="162.982" x2="115.083" y2="174.532"/>
		
			<line style="fill:none;stroke:#263238;stroke-linecap:round;stroke-linejoin:round;stroke-miterlimit:10;" x1="120.858" y1="168.757" x2="109.308" y2="168.757"/>
	</g>
	<g>
		
			<line style="fill:none;stroke:#263238;stroke-linecap:round;stroke-linejoin:round;stroke-miterlimit:10;" x1="369.198" y1="51.675" x2="369.198" y2="63.226"/>
		
			<line style="fill:none;stroke:#263238;stroke-linecap:round;stroke-linejoin:round;stroke-miterlimit:10;" x1="374.973" y1="57.451" x2="363.422" y2="57.451"/>
	</g>
	<g>
		
			<line style="fill:none;stroke:#263238;stroke-linecap:round;stroke-linejoin:round;stroke-miterlimit:10;" x1="299.894" y1="321.541" x2="299.894" y2="333.092"/>
		
			<line style="fill:none;stroke:#263238;stroke-linecap:round;stroke-linejoin:round;stroke-miterlimit:10;" x1="305.669" y1="327.316" x2="294.118" y2="327.316"/>
	</g>
	<g>
		
			<line style="fill:none;stroke:#263238;stroke-linecap:round;stroke-linejoin:round;stroke-miterlimit:10;" x1="356.072" y1="153.531" x2="356.072" y2="167.182"/>
		
			<line style="fill:none;stroke:#263238;stroke-linecap:round;stroke-linejoin:round;stroke-miterlimit:10;" x1="362.897" y1="160.357" x2="349.246" y2="160.357"/>
	</g>
	<g>
		
			<line style="fill:none;stroke:#263238;stroke-linecap:round;stroke-linejoin:round;stroke-miterlimit:10;" x1="390.199" y1="57.976" x2="390.199" y2="71.626"/>
		
			<line style="fill:none;stroke:#263238;stroke-linecap:round;stroke-linejoin:round;stroke-miterlimit:10;" x1="397.024" y1="64.801" x2="383.374" y2="64.801"/>
	</g>
	<path style="fill:none;stroke:#263238;stroke-linecap:round;stroke-linejoin:round;stroke-miterlimit:10;" d="M89.881,121.504
		c0,2.61-2.116,4.725-4.725,4.725c-2.61,0-4.725-2.116-4.725-4.725c0-2.61,2.116-4.725,4.725-4.725
		C87.766,116.779,89.881,118.895,89.881,121.504z"/>
	<path style="fill:none;stroke:#263238;stroke-linecap:round;stroke-linejoin:round;stroke-miterlimit:10;" d="M335.596,301.59
		c0,2.61-2.116,4.725-4.725,4.725s-4.725-2.116-4.725-4.725c0-2.61,2.115-4.725,4.725-4.725S335.596,298.98,335.596,301.59z"/>
	<path style="fill:none;stroke:#263238;stroke-linecap:round;stroke-linejoin:round;stroke-miterlimit:10;" d="M412.25,144.606
		c0,2.61-2.116,4.725-4.725,4.725c-2.61,0-4.725-2.116-4.725-4.725c0-2.61,2.116-4.725,4.725-4.725
		C410.135,139.88,412.25,141.996,412.25,144.606z"/>
	
		<circle style="fill:none;stroke:#263238;stroke-linecap:round;stroke-linejoin:round;stroke-miterlimit:10;" cx="115.083" cy="39.599" r="3.675"/>
	
		<circle style="fill:none;stroke:#263238;stroke-linecap:round;stroke-linejoin:round;stroke-miterlimit:10;" cx="168.636" cy="301.065" r="3.675"/>
	
		<circle style="fill:none;stroke:#263238;stroke-linecap:round;stroke-linejoin:round;stroke-miterlimit:10;" cx="83.581" cy="210.76" r="3.675"/>
</g>
<g id="Wave">
	<g>
		<path style="fill:none;stroke:#263238;stroke-miterlimit:10;" d="M65.097,242.844h8.859v-10.85c0-2.735,2.217-4.953,4.953-4.953
			l0,0c2.735,0,4.953,2.217,4.953,4.953v30.909c0,2.946,2.388,5.334,5.334,5.334l0,0c2.946,0,5.334-2.388,5.334-5.334v-55.991
			c0-3.577,2.9-6.477,6.477-6.477l0,0c3.577,0,6.477,2.9,6.477,6.477v75c0,3.367,2.729,6.096,6.096,6.096l0,0
			c3.367,0,6.096-2.729,6.096-6.096v-91.499c0-4.419,3.582-8.001,8.001-8.001l0,0c4.419,0,8.001,3.582,8.001,8.001v91.087
			c0,3.577,2.9,6.477,6.477,6.477l0,0c3.577,0,6.477-2.9,6.477-6.477v-72.586c0-4.208,3.411-7.62,7.62-7.62l0,0
			c4.208,0,7.62,3.411,7.62,7.62v53.546c0,3.156,2.559,5.715,5.715,5.715l0,0c3.156,0,5.715-2.559,5.715-5.715v-29.108
			c0-3.011,2.441-5.452,5.452-5.452l0,0c3.011,0,5.452,2.441,5.452,5.452v9.484h10.141"/>
		<path style="fill:none;stroke:#263238;stroke-miterlimit:10;" d="M189.328,242.844h8.859v-10.85c0-2.735,2.217-4.953,4.953-4.953
			l0,0c2.735,0,4.953,2.217,4.953,4.953v30.909c0,2.946,2.388,5.334,5.334,5.334l0,0c2.946,0,5.334-2.388,5.334-5.334v-55.991
			c0-3.577,2.9-6.477,6.477-6.477l0,0c3.577,0,6.477,2.9,6.477,6.477v75c0,3.367,2.729,6.096,6.096,6.096l0,0
			c3.367,0,6.096-2.729,6.096-6.096v-91.499c0-4.419,3.582-8.001,8.001-8.001l0,0c4.418,0,8,3.582,8,8.001v91.087
			c0,3.577,2.9,6.477,6.477,6.477l0,0c3.577,0,6.477-2.9,6.477-6.477v-72.586c0-4.208,3.411-7.62,7.62-7.62l0,0
			c4.208,0,7.619,3.411,7.619,7.62v53.546c0,3.156,2.559,5.715,5.715,5.715l0,0c3.156,0,5.715-2.559,5.715-5.715v-29.108
			c0-3.011,2.441-5.452,5.452-5.452l0,0c3.011,0,5.452,2.441,5.452,5.452v9.484h10.141"/>
		<path style="fill:none;stroke:#263238;stroke-miterlimit:10;" d="M313.559,242.844h8.859v-10.85c0-2.735,2.217-4.953,4.953-4.953
			l0,0c2.735,0,4.953,2.217,4.953,4.953v30.909c0,2.946,2.388,5.334,5.334,5.334l0,0c2.946,0,5.334-2.388,5.334-5.334v-55.991
			c0-3.577,2.9-6.477,6.477-6.477l0,0c3.577,0,6.477,2.9,6.477,6.477v75c0,3.367,2.729,6.096,6.096,6.096l0,0
			c3.367,0,6.096-2.729,6.096-6.096v-91.499c0-4.419,3.582-8.001,8.001-8.001l0,0c4.419,0,8.001,3.582,8.001,8.001v91.087
			c0,3.577,2.9,6.477,6.477,6.477l0,0c3.577,0,6.477-2.9,6.477-6.477v-72.586c0-4.208,3.411-7.62,7.62-7.62l0,0
			c4.208,0,7.62,3.411,7.62,7.62v53.546c0,3.156,2.559,5.715,5.715,5.715l0,0c3.156,0,5.715-2.559,5.715-5.715v-29.108
			c0-3.011,2.441-5.452,5.452-5.452l0,0c3.011,0,5.452,2.441,5.452,5.452v9.484h10.141"/>
	</g>
</g>
<g id="Floor">
	
		<ellipse style="fill:none;stroke:#263238;stroke-linecap:round;stroke-linejoin:round;stroke-miterlimit:10;" cx="243.715" cy="454.899" rx="97.131" ry="23.101"/>
</g>
<g id="Character">
	<g>
		<path style="fill:#263238;stroke:#263238;stroke-linecap:round;stroke-linejoin:round;stroke-miterlimit:10;" d="M209.238,63.051
			c0,0,1.575-4.9,2.975-8.75c1.4-3.85,3.85-7,5.075-7.875c1.225-0.875,7.351-2.975,19.251-0.35c11.901,2.625,17.326,7,19.251,8.575
			s1.925,4.2,2.275,7.35s1.05,6.125,1.05,6.125s-1.225-2.625-16.276-4.725c-15.051-2.1-20.826-3.5-25.201-1.4
			c-4.375,2.1-9.451,4.725-9.451,4.725L209.238,63.051z"/>
		<path style="fill:#263238;stroke:#263238;stroke-linecap:round;stroke-linejoin:round;stroke-miterlimit:10;" d="M212.992,88.331
			c0,0-1.298,0-7.006-1.135c-5.709-1.135-10.38-5.393-5.19-12.488c5.19-7.095,8.563-12.488,8.563-12.488s2.154-4.023,10.38-6.129
			c8.225-2.105,26.076,3.254,33.077,5.934c7,2.68,12.601,5.934,15.226,10.528c2.625,4.594,0.35,5.934-3.85,10.336
			c-4.2,4.402-6.825,5.742-13.826,7.656C243.365,92.46,212.992,88.331,212.992,88.331z"/>
		<g>
			<path style="fill:#FFFFFF;stroke:#263238;stroke-linecap:round;stroke-linejoin:round;stroke-miterlimit:10;" d="M218.441,65.027
				c0,0-6.747,6.228-6.747,9.342c0,3.114,0.519,13.494,1.298,17.386c0.779,3.892,6.487,15.829,8.823,17.646
				c2.336,1.816,10.38-0.259,10.38-0.259l3.892,5.19l21.019-13.494c0,0-3.373-7.525-3.633-8.304c-0.26-0.779-0.26-5.449-0.26-5.449
				s3.114-1.557,4.152-4.152c1.038-2.595,1.038-5.968,1.038-5.968s-9.082-9.082-19.202-12.196
				C229.081,61.654,218.441,65.027,218.441,65.027z"/>
			<path style="fill:none;stroke:#263238;stroke-linecap:round;stroke-linejoin:round;stroke-miterlimit:10;" d="M220.258,74.629
				l0.519,4.152c0,0-2.595,2.854-2.595,4.93c0,2.076,3.633,2.076,3.633,2.076"/>
			<polyline style="fill:none;stroke:#263238;stroke-linecap:round;stroke-linejoin:round;stroke-miterlimit:10;" points="
				227.783,73.331 228.043,75.147 234.53,73.072 			"/>
			<polyline style="fill:none;stroke:#263238;stroke-linecap:round;stroke-linejoin:round;stroke-miterlimit:10;" points="
				215.068,78.78 214.391,81.669 218.543,79.333 			"/>
			<ellipse style="fill:#263238;" cx="233.028" cy="74.846" rx="1.242" ry="1.072"/>
			<ellipse style="fill:#263238;" cx="218.015" cy="80.603" rx="1.242" ry="1.072"/>
			<path style="fill:none;stroke:#263238;stroke-width:2;stroke-linecap:round;stroke-linejoin:round;stroke-miterlimit:10;" d="
				M224.289,71.101c0,0,1.41-4.983,6.125-5.95c3.329-0.683,5.425,1.575,5.425,1.575"/>
			<path style="fill:none;stroke:#263238;stroke-width:2;stroke-linecap:round;stroke-linejoin:round;stroke-miterlimit:10;" d="
				M218.514,73.551c0,0-1.568-1.209-2.8-0.7c-2.416,0.998-2.625,3.5-2.625,3.5"/>
			<path style="fill:#263238;stroke:#263238;stroke-linecap:round;stroke-linejoin:round;stroke-miterlimit:10;" d="M246.866,71.801
				c2.975,2.45,2.45,6.125,4.725,5.25c1.66-0.639,3.403-1.83,4.23-2.43c-2.549-2.178-6.759-5.426-11.592-7.813
				C244.222,67.552,244.426,69.793,246.866,71.801z"/>
			<polygon style="fill:#263238;stroke:#263238;stroke-linecap:round;stroke-linejoin:round;stroke-miterlimit:10;" points="
				232.194,109.141 240.565,102.953 236.087,114.331 			"/>
		</g>
		<g>
			<g>
				<path style="fill:#FFFFFF;stroke:#263238;stroke-linecap:round;stroke-linejoin:round;stroke-miterlimit:10;" d="
					M229.812,416.048c0,0-12.951,9.101-15.051,9.451c-2.1,0.35-11.201,2.1-12.251,4.2c-1.05,2.1-1.75,4.9,1.75,5.6
					c3.5,0.7,19.251,1.75,24.852,1.75c5.6,0,11.901,0.35,15.051-0.35c3.15-0.7,8.051,0.7,9.801-6.3c1.75-7,1.4-12.601,0.35-16.451
					C253.263,410.098,229.812,416.048,229.812,416.048z"/>
				<path style="fill:none;stroke:#263238;stroke-linecap:round;stroke-linejoin:round;stroke-miterlimit:10;" d="M246.911,433.856
					c0,0-11.061-1.229-21.2-0.922c-8.944,0.271-20.99-1.609-23.707-2.056c-0.658,1.856-0.617,3.846,2.257,4.421
					c3.5,0.7,19.251,1.75,24.852,1.75c5.6,0,11.901,0.35,15.051-0.35c1.667-0.37,3.82-0.163,5.741-0.913L246.911,433.856z"/>
			</g>
			<g>
				<g>
					<path style="fill:#FFFFFF;stroke:#263238;stroke-linecap:round;stroke-linejoin:round;stroke-miterlimit:10;" d="
						M227.069,429.733c-0.004,0-0.008,0-0.012,0c-0.29-0.007-0.52-0.247-0.513-0.537l0.042-1.822
						c0.007-0.288,0.206-0.49,0.537-0.513c0.29,0.007,0.52,0.247,0.513,0.537l-0.041,1.822
						C227.588,429.505,227.354,429.733,227.069,429.733z"/>
				</g>
				<g>
					<path style="fill:#FFFFFF;stroke:#263238;stroke-linecap:round;stroke-linejoin:round;stroke-miterlimit:10;" d="
						M227.111,428.436c-0.008,0-0.016,0-0.024,0c-0.58-0.013-1.039-0.494-1.026-1.074l0.16-7.049
						c0.013-0.58,0.507-1.003,1.073-1.026c0.58,0.013,1.039,0.494,1.026,1.074l-0.16,7.049
						C228.147,427.982,227.68,428.436,227.111,428.436z"/>
				</g>
			</g>
			<g>
				<path style="fill:#FFFFFF;stroke:#263238;stroke-linecap:round;stroke-linejoin:round;stroke-miterlimit:10;" d="
					M214.743,427.062c-0.568,0-1.112-0.308-1.387-0.85c-0.409-0.806-0.406-1.645,0.006-2.362c0.8-1.394,2.822-1.657,3.654-1.705
					c0.857-0.064,1.614,0.611,1.664,1.48c0.051,0.867-0.61,1.611-1.476,1.664c-0.282,0.018-0.622,0.08-0.882,0.152
					c0.013,0.596-0.307,1.176-0.872,1.455C215.223,427.009,214.981,427.062,214.743,427.062z"/>
			</g>
			<g>
				<path style="fill:#FFFFFF;stroke:#263238;stroke-linecap:round;stroke-linejoin:round;stroke-miterlimit:10;" d="
					M218.626,424.664c-0.568,0-1.112-0.308-1.387-0.85c-0.409-0.806-0.406-1.645,0.006-2.362c0.8-1.394,2.822-1.657,3.654-1.705
					c0.86-0.059,1.613,0.611,1.664,1.48c0.051,0.868-0.61,1.611-1.476,1.664c-0.282,0.018-0.622,0.08-0.882,0.152
					c0.013,0.596-0.307,1.176-0.872,1.455C219.106,424.611,218.864,424.664,218.626,424.664z"/>
			</g>
			<g>
				<path style="fill:#FFFFFF;stroke:#263238;stroke-linecap:round;stroke-linejoin:round;stroke-miterlimit:10;" d="
					M222.509,422.268c-0.568,0-1.112-0.308-1.387-0.85c-0.409-0.806-0.406-1.645,0.006-2.362c0.8-1.394,2.821-1.657,3.653-1.705
					c0.873-0.062,1.613,0.612,1.664,1.48c0.051,0.867-0.61,1.611-1.476,1.664c-0.282,0.018-0.621,0.08-0.881,0.152
					c0.013,0.596-0.307,1.176-0.872,1.455C222.988,422.215,222.746,422.268,222.509,422.268z"/>
			</g>
			<path style="fill:none;stroke:#263238;stroke-linecap:round;stroke-linejoin:round;stroke-miterlimit:10;" d="M205.392,428.27
				c0,0,0.171,0.342,3.587,0.342c3.416,0,4.441,1.537,4.782,2.733"/>
			<path style="fill:none;stroke:#263238;stroke-linecap:round;stroke-linejoin:round;stroke-miterlimit:10;" d="M237.739,427.08
				c0.872-0.712,1.785-1.24,2.665-1.372"/>
			<path style="fill:none;stroke:#263238;stroke-linecap:round;stroke-linejoin:round;stroke-miterlimit:10;" d="M233.06,432.71
				c0,0,1.397-2.308,3.249-4.28"/>
		</g>
		<path style="fill:#263238;stroke:#263238;stroke-linecap:round;stroke-linejoin:round;stroke-miterlimit:10;" d="M215.539,244.887
			c0,0-0.35,22.051-0.35,44.803c0,22.751,1.167,43.564,3.967,50.214c2.8,6.65,10.307,41.143,11.007,45.693
			c0.7,4.55-0.35,11.551-0.35,15.051c0,3.5,1.05,6.3,1.05,6.3s-1.75,2.8-1.75,4.55c0,1.75-2.1,5.25,0,6.3
			c2.1,1.05,3.5,2.1,14.001,3.85c10.501,1.75,17.151-8.4,18.901-11.201c1.75-2.8-8.206-69.495-9.607-81.745
			c-1.4-12.251-0.466-37.613,1.634-47.414c2.1-9.801,1.05-32.552-0.35-37.102c-1.4-4.55-15.051-7.35-22.401-6.65
			C223.939,238.236,215.539,244.887,215.539,244.887z"/>
		<path style="fill:#263238;stroke:#263238;stroke-linecap:round;stroke-linejoin:round;stroke-miterlimit:10;" d="M242.49,254.687
			c0,0-7.584,53.714-7.584,62.465s3.85,18.551,4.9,22.751c1.05,4.2,5.056,51.643,6.106,54.794c1.05,3.15,1.4,11.551,1.4,11.551
			s-2.8,1.05-3.15,3.15c-0.35,2.1,1.4,3.5,1.4,5.25c0,1.75-1.75,4.55-2.45,7c-0.7,2.45,0.35,4.9,0.35,4.9s-7,9.451-10.151,12.601
			c-3.15,3.15-11.201,9.1-15.751,12.251c-4.55,3.15-13.651,7-14.001,11.901c-0.35,4.9,3.15,9.101,11.901,9.451
			c8.751,0.35,24.501,0.7,33.252-0.35c8.751-1.05,25.902-10.851,28.702-14.351c2.8-3.5,4.55-3.85,4.55-13.651s0.35-19.251,0-20.301
			c-0.35-1.05-1.05-2.8-0.35-8.4c0.7-5.6-1.05-9.451-1.05-9.451s1.05-3.15,1.4-5.25c0.35-2.1-2.45-7-2.45-7
			s1.944-36.243,1.944-44.293c0-8.051-10.151-25.552-10.151-25.552s1.4-7.35,1.4-8.75c0-1.4-2.1-4.9-2.1-4.9
			s10.384-28.863,11.434-32.713c1.05-3.85,3.85-16.451,4.55-20.651c0.7-4.2-1.75-12.951-4.9-18.201
			c-3.15-5.25-16.801-11.551-21.701-7.35C255.091,235.786,242.49,254.687,242.49,254.687z"/>
		<path style="fill:#FFFFFF;stroke:#263238;stroke-linecap:round;stroke-linejoin:round;stroke-miterlimit:10;" d="M212.739,245.236
			c0,0,9.45,16.451,15.751,19.601c6.3,3.15,12.601-1.4,21.351-10.851c8.75-9.451,14.001-16.801,20.301-14.351
			c6.3,2.45,17.851,26.252,19.601,29.052c1.75,2.8,1.4-23.101-2.1-31.152c-3.5-8.05-21.351-11.201-43.052-8.4
			C222.889,231.936,212.739,245.236,212.739,245.236z"/>
		<path style="fill:#666666;stroke:#263238;stroke-linecap:round;stroke-linejoin:round;stroke-miterlimit:10;" d="M210.988,234.036
			c0,0-0.7,6.3-0.7,9.801s5.25,3.15,5.25,3.15s15.751-6.65,33.252-7.701c17.501-1.05,35.002,3.5,37.802,3.5c2.8,0,4.2-2.45,4.2-5.25
			c0-2.8-3.15-9.1-3.15-9.1s-7.35-8.051-29.052-8.751c-21.701-0.7-37.452-0.35-42.002,3.5
			C212.038,227.035,210.988,234.036,210.988,234.036z"/>
		<g>
			<path style="fill:#92E3A9;stroke:#263238;stroke-linecap:round;stroke-linejoin:round;stroke-miterlimit:10;" d="M255.937,96.845
				c0,0-19.645,14.957-23.663,18.082c-4.018,3.125-0.67,5.804,0.223,6.474c0.893,0.67,2.456,3.125,2.456,3.125
				s-6.027,5.581-14.734,11.385c-8.706,5.804-10.269,6.697-12.725,9.822c-2.456,3.125-11.608,13.394-11.608,13.394
				s1.339-5.804,1.339-9.822c0-4.018,1.844-8.889-0.166-12.238c-2.009-3.349-6.92-7.59-11.385-7.59
				c-4.465,0-8.483,1.563-11.162,5.804c-2.679,4.242-4.746,12.908-6.308,22.284c-1.563,9.376-8.425,20.801-5.523,25.266
				c2.902,4.465,7.59,10.046,13.841,10.046c6.251,0,11.831-0.446,14.734-3.125s16.685-8.523,18.248-9.639
				c1.563-1.116,5.358-2.902,5.358-2.902s-0.223,17.189-1.116,24.11c-0.893,6.92-6.697,23.44-7.144,27.012
				c-0.446,3.572,5.134,7.144,5.134,7.144s5.804-6.027,22.993-7.59c17.189-1.563,37.057,0,41.299,0.67
				c4.242,0.67,10.269,3.572,12.948,0.893c2.679-2.679,4.465-2.679,4.018-8.706c-0.446-6.027-1.339-12.501-1.339-15.18
				c0-2.679,1.786-24.11,1.786-24.779c0-0.67,5.804-26.119,5.804-26.119s13.171-4.018,22.1-5.804
				c8.929-1.786,12.724-14.064,9.822-21.208c-2.902-7.144-14.287-14.51-19.198-17.859c-4.911-3.349-21.207-4.018-23.44-3.125
				c-2.232,0.893-9.153-0.446-14.51-1.116s-8.26-0.67-9.153-0.447c-0.893,0.223-0.893,0.223-0.893,0.223s-1.339-7.367-3.349-8.706
				C258.616,95.282,255.937,96.845,255.937,96.845z"/>
			<g>
				<path style="fill:none;stroke:#263238;stroke-linecap:round;stroke-linejoin:round;stroke-miterlimit:10;" d="M306.926,145.291
					c1.367,0.273,2.642,0.417,3.762,0.482"/>
				<path style="fill:none;stroke:#263238;stroke-linecap:round;stroke-linejoin:round;stroke-miterlimit:10;" d="M283.676,111.172
					c0,0-5.804,3.125-4.241,8.26c1.563,5.134,12.055,16.966,16.966,20.984c2.264,1.852,4.67,3.088,6.978,3.903"/>
				<path style="fill:none;stroke:#263238;stroke-linecap:round;stroke-linejoin:round;stroke-miterlimit:10;" d="M294.392,139.97
					c0,0,3.795,5.358,7.59,6.92c3.795,1.563,6.92,1.34,6.92,1.34"/>
				<path style="fill:none;stroke:#263238;stroke-linecap:round;stroke-linejoin:round;stroke-miterlimit:10;" d="M194.856,174.749
					c-0.753,2.919-2.26,5.18-2.26,5.18"/>
				<path style="fill:none;stroke:#263238;stroke-linecap:round;stroke-linejoin:round;stroke-miterlimit:10;" d="M195.887,159.128
					c0,0-0.612,8.3-0.612,12.541"/>
				<path style="fill:none;stroke:#263238;stroke-linecap:round;stroke-linejoin:round;stroke-miterlimit:10;" d="M195.498,178.813
					c0,0-1.786,4.242-4.465,4.911"/>
				<polyline style="fill:none;stroke:#263238;stroke-linecap:round;stroke-linejoin:round;stroke-miterlimit:10;" points="
					213.134,158.721 214.862,177.21 210.008,162.516 				"/>
				<path style="fill:none;stroke:#263238;stroke-linecap:round;stroke-linejoin:round;stroke-miterlimit:10;" d="M275.417,140.863
					c0,0,2.232,9.822,10.046,12.055c7.813,2.232,12.725,1.563,12.725,1.563"/>
				<path style="fill:none;stroke:#263238;stroke-linecap:round;stroke-linejoin:round;stroke-miterlimit:10;" d="M223.168,221.214
					c-0.982,3.802-0.764,6.396,1.821,7.571"/>
				<path style="fill:none;stroke:#263238;stroke-linecap:round;stroke-linejoin:round;stroke-miterlimit:10;" d="M227.323,208.333
					c-0.53,2.233-1.186,4.357-1.984,6.452c-0.139,0.366-0.275,0.725-0.407,1.079"/>
				<path style="fill:none;stroke:#263238;stroke-linecap:round;stroke-linejoin:round;stroke-miterlimit:10;" d="M234.346,137.718
					c-1.248,3.684-2.425,7.533-3.057,10.563c-1.75,8.4-2.1,28.352-2.1,39.902c0,6.853-0.37,12.351-1.255,17.225"/>
				<path style="fill:none;stroke:#263238;stroke-linecap:round;stroke-linejoin:round;stroke-miterlimit:10;" d="M236.19,112.229
					c0,0-2.8,4.9-1.4,6.3c1.4,1.4,4.2,6.65,4.2,6.65s-1.829,4.52-3.758,9.979"/>
				<g>
					<path style="fill:#FFFFFF;stroke:#263238;stroke-linecap:round;stroke-linejoin:round;stroke-miterlimit:10;" d="
						M231.659,187.818c-2.171,0-4.011-0.637-5.493-1.907c-3.881-3.326-5.215-10.635-4.324-23.701
						c0.035-0.521,0.082-1.051,0.138-1.585c0.106-13.584,7.35-29.119,7.717-30.013c0.221-0.536,1.241-2.644,1.778-2.424
						c0.536,0.221,1.006-1.046,0.786-0.509c-0.012,0.03-0.176,0.431-0.449,1.134c1.216-2.743,2.078-4.503,2.2-4.751
						c0.256-0.521,0.884-0.736,1.406-0.478c0.52,0.256,0.734,0.886,0.478,1.406c-0.105,0.214-10.186,20.819-11.815,35.753
						c-0.007,1.231,0.056,2.404,0.2,3.501c0.331,2.514,1.317,5.582,4.134,5.924c4.324,0.517,11.462-5.347,15.198-14.92
						c5.544-14.205,18.437-43.842,18.566-44.139c0.221-0.509,0.802-0.758,1.32-0.569c0.521,0.189,0.806,0.75,0.651,1.281
						c-0.049,0.168-4.907,16.949-7.317,35.891c-2.266,17.803-9.997,36.997-22.162,39.744
						C233.606,187.698,232.602,187.818,231.659,187.818z M223.676,169.207c-0.01,8.01,1.247,12.874,3.856,15.109
						c1.616,1.385,3.8,1.742,6.676,1.093c9.523-2.15,17.97-17.76,20.541-37.961c1.12-8.799,2.764-17.136,4.216-23.588
						c-4.256,9.926-10.117,23.752-13.396,32.153c-3.771,9.661-11.567,16.949-17.408,16.241
						C226.906,172.102,225.027,171.466,223.676,169.207z"/>
				</g>
				<polygon style="fill:#FFFFFF;stroke:#263238;stroke-linecap:round;stroke-linejoin:round;stroke-miterlimit:10;" points="
					234.79,118.529 233.74,126.58 236.89,125.179 				"/>
				<path style="fill:none;stroke:#263238;stroke-linecap:round;stroke-linejoin:round;stroke-miterlimit:10;" d="M263.808,113.851
					c0,0-8.929,3.795-11.608,5.581"/>
			</g>
		</g>
		<path style="fill:#666666;stroke:#263238;stroke-linecap:round;stroke-linejoin:round;stroke-miterlimit:10;" d="M278.988,108.716
			c0,0,0.67,2.456,4.465,5.804c3.795,3.349,11.162,2.679,14.064,1.116c2.902-1.563,3.737-6.514,3.737-6.514
			s-4.407-4.871-6.639-5.094C292.383,103.805,279.881,102.466,278.988,108.716z"/>
		<g>
			<path style="fill:#FFFFFF;stroke:#263238;stroke-linecap:round;stroke-linejoin:round;stroke-miterlimit:10;" d="
				M302.817,106.221c-0.428-0.813-0.886-1.592-1.353-2.35c0.082-0.108,0.163-0.218,0.237-0.329c0.446-0.67,0.893-1.786,0.446-2.679
				c-0.446-0.893-2.455-4.688-3.125-4.688c-0.348,0-1.899,0.241-3.31,0.472c-0.086-0.08-0.177-0.173-0.262-0.249
				c-0.779-0.702-1.258-1.321-1.696-1.906c0.445-1.516,2.106-5.586,1.696-7.023c-0.446-1.563-4.465-2.902-6.027-2.679
				c-1.017,0.145-3.259,2.934-4.704,4.867c-0.661-0.131-1.326-0.25-1.972-0.357c-0.702-2.067-2.108-5.91-2.923-6.073
				c-1.116-0.223-3.125,2.232-3.125,3.348c0,0.363,0.071,1.273,0.167,2.332l-2.623,1.686c0,0-3.572,8.706-5.134,10.492
				c-1.563,1.786-8.036,5.804-12.055,6.027c-4.018,0.223-8.483,0.67-7.59,3.349c0.893,2.679,4.018,2.902,10.046,3.572
				c6.027,0.67,11.162-2.232,13.394-3.572c2.232-1.339,6.92-0.67,10.046-0.67c3.125,0,7.367-1.116,8.26-1.116
				c0.893,0,3.349,2.009,6.027,2.679c2.679,0.67,7.59-0.893,7.59-0.893S305.049,110.462,302.817,106.221z"/>
			<path style="fill:#FFFFFF;stroke:#263238;stroke-linecap:round;stroke-linejoin:round;stroke-miterlimit:10;" d="M288.753,88.138
				l-0.223,6.251c0,0-1.563,5.134-0.67,6.92c0.893,1.786,4.465,0.223,4.911-0.67c0.447-0.893,3.795-12.055,3.572-13.394
				s-3.349-3.125-5.134-3.125c-1.786,0-2.902,1.339-2.902,1.339"/>
			<path style="fill:#FFFFFF;stroke:#263238;stroke-linecap:round;stroke-linejoin:round;stroke-miterlimit:10;" d="M304.38,100.863
				c0,0,4.018,2.679,4.241,3.572c0.223,0.893-0.447,6.027-0.447,8.706c0,2.679-0.893,5.358-2.456,3.795
				c-1.563-1.563-1.563-6.697-1.786-7.59c-0.223-0.893-1.339-1.339-1.339-1.339"/>
			<path style="fill:#FFFFFF;stroke:#263238;stroke-linecap:round;stroke-linejoin:round;stroke-miterlimit:10;" d="M278.707,80.995
				c0,0-5.581-1.116-6.027,1.116c-0.447,2.232-0.67,9.599,1.116,10.046s4.688,0.67,5.134,0c0.447-0.67,2.009-8.483,1.786-9.822
				C280.493,80.995,278.707,80.995,278.707,80.995z"/>
			<path style="fill:#FFFFFF;stroke:#263238;stroke-linecap:round;stroke-linejoin:round;stroke-miterlimit:10;" d="M294.334,96.845
				c0,0,5.358-4.018,6.92-4.465c1.563-0.446,5.581,3.572,5.581,3.572s-0.67,5.358-1.786,8.706c-1.116,3.349-2.456,4.465-3.795,4.465
				s-2.679-1.116-2.679-2.902c0-1.786,0.67-7.59,0.67-7.59"/>
			<path style="fill:#FFFFFF;stroke:#263238;stroke-linecap:round;stroke-linejoin:round;stroke-miterlimit:10;" d="M282.726,91.264
				c0,0-2.009,2.679-3.795,3.125c-1.786,0.446-4.242,0.446-4.242,0.446"/>
			<path style="fill:#FFFFFF;stroke:#263238;stroke-linecap:round;stroke-linejoin:round;stroke-miterlimit:10;" d="M284.958,92.603
				c0,0,0.223,2.232,2.679,2.679"/>
			<path style="fill:#FFFFFF;stroke:#263238;stroke-linecap:round;stroke-linejoin:round;stroke-miterlimit:10;" d="M295.227,99.97
				c0,0-0.447,2.902,2.902,2.232"/>
		</g>
		<g>
			<path style="fill:#FFFFFF;stroke:#263238;stroke-linecap:round;stroke-linejoin:round;stroke-miterlimit:10;" d="
				M191.703,125.906c0,0,3.795-5.804,6.474-11.832c2.679-6.027,4.911-9.822,7.813-13.171c2.902-3.349,10.496-9.302,11.162-9.376
				c2.009-0.223,2.009,2.232,2.009,2.232s3.572-2.009,4.688-1.116c1.116,0.893,0.653,3.104-1.116,4.465
				c-2.902,2.232-6.697,8.037-6.92,8.706c-0.223,0.67-0.67,1.339-0.67,1.339s4.911,2.902,4.911,4.242s-0.893,3.349-0.893,3.349
				s0.446,2.902-1.116,5.358c-1.563,2.456-2.679,4.911-4.018,4.911s-2.009-0.223-2.009-1.563c0-1.339,1.563-4.465,1.563-4.465
				s-2.232,2.009-3.572,4.018c-1.34,2.009-2.679,4.465-4.911,5.358c-2.232,0.893-6.251,2.009-6.251,2.009l-4.076,6.657
				c0,0-3.291,0.71-5.746-0.853c-2.456-1.563-3.125-4.911-3.125-4.911L191.703,125.906z"/>
			<path style="fill:#666666;stroke:#263238;stroke-linecap:round;stroke-linejoin:round;stroke-miterlimit:10;" d="M190.14,126.129
				c0,0-0.223,2.009,2.009,3.795c2.232,1.786,6.697,2.009,6.697,2.009s0.893-0.67,0.893,0.446c0,1.116-3.349,6.92-4.688,9.153
				c-1.339,2.232-8.706,2.679-11.385-0.893c-2.679-3.572-2.456-8.26-2.009-8.93c0.447-0.67,6.474-6.027,6.474-6.027
				S189.917,124.566,190.14,126.129z"/>
			<path style="fill:none;stroke:#263238;stroke-linecap:round;stroke-linejoin:round;stroke-miterlimit:10;" d="M219.161,93.76
				c0,0-5.581,3.795-7.367,6.251c-1.786,2.456-2.902,3.795-2.902,3.795"/>
			
				<line style="fill:none;stroke:#263238;stroke-linecap:round;stroke-linejoin:round;stroke-miterlimit:10;" x1="214.026" y1="111.395" x2="219.161" y2="114.744"/>
			<path style="fill:none;stroke:#263238;stroke-linecap:round;stroke-linejoin:round;stroke-miterlimit:10;" d="M215.143,107.154
				c0,0-1.563-1.116-2.679-0.447"/>
		</g>
		<g>
			<g>
				<path style="fill:#FFFFFF;stroke:#263238;stroke-linecap:round;stroke-linejoin:round;stroke-miterlimit:10;" d="
					M282.059,433.84c-1.096,0.971-2.296,2.041-3.594,3.209c-7,6.3-17.501,6.3-17.501,6.3s-3.5-15.751-7.7-16.801
					c-4.2-1.05-9.801,0-9.801,0s-7,9.451-10.151,12.601c-3.15,3.15-11.201,9.1-15.751,12.251c-4.55,3.15-13.651,7-14.001,11.901
					s0.839,7.12,9.245,9.576c7.792,2.276,27.157,0.575,35.907-0.475c8.751-1.05,25.902-10.851,28.702-14.351
					c2.8-3.5,4.55-3.85,4.55-13.651C281.965,440.682,282.015,437.017,282.059,433.84z"/>
				<path style="fill:none;stroke:#263238;stroke-linecap:round;stroke-linejoin:round;stroke-miterlimit:10;" d="M281.323,448.911
					c-5.838,4.609-13.826,10.447-26.731,15.363c-12.904,4.916-29.496,5.223-41.479,3.073c-6.149-1.104-8.572-2.935-9.478-4.457
					c-0.024,0.137-0.065,0.272-0.075,0.411c-0.35,4.9,0.839,7.12,9.245,9.576c7.792,2.276,27.157,0.575,35.907-0.475
					c8.751-1.05,25.902-10.851,28.702-14.351c2.333-2.916,3.932-3.665,4.403-9.493C281.652,448.676,281.493,448.777,281.323,448.911
					z"/>
			</g>
			<path style="fill:none;stroke:#263238;stroke-linecap:round;stroke-linejoin:round;stroke-miterlimit:10;" d="M223.154,448.252
				c0,0-4.099,1.366-2.052,3.117c0.934,0.799,10.25,6.277,12.642,4.74C237.406,453.754,223.154,448.252,223.154,448.252z"/>
			<path style="fill:none;stroke:#263238;stroke-linecap:round;stroke-linejoin:round;stroke-miterlimit:10;" d="M234.928,453.212
				c0,0,19.357-13.519,21.815-17.513"/>
			<g>
				<g>
					<path style="fill:#FFFFFF;stroke:#263238;stroke-linecap:round;stroke-linejoin:round;stroke-miterlimit:10;" d="
						M238.308,453.558c-0.403,0-0.806-0.154-1.114-0.462c-6.03-6.03-11.044-5.424-11.253-5.394c-0.858,0.125-1.654-0.474-1.78-1.329
						c-0.126-0.854,0.451-1.65,1.304-1.784c0.27-0.044,6.714-0.964,13.956,6.28c0.615,0.615,0.615,1.612,0,2.227
						C239.114,453.405,238.711,453.558,238.308,453.558z"/>
				</g>
				<g>
					<path style="fill:#FFFFFF;stroke:#263238;stroke-linecap:round;stroke-linejoin:round;stroke-miterlimit:10;" d="
						M243.531,450.178c-0.427,0-0.853-0.172-1.164-0.513c-5.838-6.395-12.713-5.649-12.782-5.643
						c-0.865,0.111-1.648-0.513-1.751-1.376c-0.104-0.863,0.512-1.648,1.376-1.751c0.348-0.04,8.565-0.931,15.484,6.646
						c0.587,0.643,0.541,1.639-0.102,2.225C244.291,450.042,243.91,450.178,243.531,450.178z"/>
				</g>
				<g>
					<path style="fill:#FFFFFF;stroke:#263238;stroke-linecap:round;stroke-linejoin:round;stroke-miterlimit:10;" d="
						M248.141,446.799c-0.463,0-0.922-0.203-1.233-0.594c-4.416-5.543-11.674-5.963-12.927-5.629
						c-0.747,0.35-1.643,0.066-2.047-0.665c-0.42-0.761-0.144-1.72,0.618-2.14c1.95-1.076,11.289-0.472,16.82,6.472
						c0.541,0.68,0.43,1.672-0.25,2.213C248.831,446.687,248.485,446.799,248.141,446.799z M233.949,440.585L233.949,440.585
						L233.949,440.585z M234.073,440.529c0,0-0.001,0-0.002,0.001C234.072,440.529,234.073,440.529,234.073,440.529z"/>
				</g>
				<g>
					<path style="fill:#FFFFFF;stroke:#263238;stroke-linecap:round;stroke-linejoin:round;stroke-miterlimit:10;" d="
						M251.827,443.112c-0.428,0-0.854-0.173-1.166-0.516c-5.611-6.172-12.895-6.244-12.967-6.244c-0.87,0-1.575-0.705-1.575-1.575
						s0.705-1.575,1.575-1.575c0.355,0,8.76,0.083,15.299,7.276c0.584,0.644,0.537,1.64-0.107,2.225
						C252.584,442.977,252.205,443.112,251.827,443.112z"/>
				</g>
				<g>
					<g>
						<path style="fill:#FFFFFF;stroke:#263238;stroke-linecap:round;stroke-linejoin:round;stroke-miterlimit:10;" d="
							M256.128,454.877c-0.007,0-0.015,0-0.024,0c-0.579-0.013-1.039-0.494-1.026-1.074l0.063-2.778
							c0.013-0.572,0.481-1.026,1.05-1.026c0.007,0,0.015,0,0.024,0c0.579,0.013,1.039,0.494,1.026,1.074l-0.063,2.778
							C257.165,454.423,256.698,454.877,256.128,454.877z"/>
					</g>
					<g>
						<path style="fill:#FFFFFF;stroke:#263238;stroke-linecap:round;stroke-linejoin:round;stroke-miterlimit:10;" d="
							M256.192,452.624c-0.012,0-0.025,0-0.037,0c-0.87-0.021-1.559-0.741-1.539-1.611l0.244-10.742
							c0.019-0.87,0.765-1.567,1.611-1.539c0.869,0.021,1.559,0.741,1.539,1.611l-0.244,10.742
							C257.747,451.942,257.045,452.624,256.192,452.624z"/>
					</g>
				</g>
			</g>
			<path style="fill:none;stroke:#263238;stroke-linecap:round;stroke-linejoin:round;stroke-miterlimit:10;" d="M248.026,462.636
				c0.572,1.006,0.87,1.983,0.918,2.695"/>
			<path style="fill:none;stroke:#263238;stroke-linecap:round;stroke-linejoin:round;stroke-miterlimit:10;" d="M212.053,455.596
				c0,0-2.562,1.708,1.879,3.587c4.441,1.879,16.054,0.683,23.74-0.854c2.774-0.555,4.992-0.131,6.701,0.759"/>
			<path style="fill:none;stroke:#263238;stroke-linecap:round;stroke-linejoin:round;stroke-miterlimit:10;" d="M276.779,442.291
				c0.39-0.772,0.843-1.526,1.371-2.237"/>
			<path style="fill:none;stroke:#263238;stroke-linecap:round;stroke-linejoin:round;stroke-miterlimit:10;" d="M274.392,453.034
				c0,0-0.09-4.042,1.359-8.283"/>
		</g>
		<g>
			<path style="fill:#666666;stroke:#263238;stroke-linecap:round;stroke-linejoin:round;stroke-miterlimit:10;" d="
				M278.405,163.417c0.906-5.728-3.002-11.106-8.73-12.013c-5.728-0.906-11.106,3.002-12.013,8.73
				c-0.906,5.728,3.002,11.106,8.73,12.013C272.12,173.054,277.499,169.145,278.405,163.417z"/>
			<path style="fill:#263238;stroke:#263238;stroke-linecap:round;stroke-linejoin:round;stroke-miterlimit:10;" d="
				M320.963,174.262l-46.554-4.28l2.27-14.347l45.6,10.305c1.261,0.282,2.085,1.496,1.883,2.772l-0.553,3.495
				C323.408,173.483,322.25,174.383,320.963,174.262z"/>
			<polygon style="fill:#FFFFFF;stroke:#263238;stroke-linecap:round;stroke-linejoin:round;stroke-miterlimit:10;" points="
				279.135,156.19 276.68,155.636 274.41,169.982 276.916,170.213 			"/>
			<path style="fill:#FFFFFF;stroke:#263238;stroke-linecap:round;stroke-linejoin:round;stroke-miterlimit:10;" d="
				M264.969,171.808c0.462,0.141,0.933,0.262,1.423,0.34c0.097,0.015,0.193,0.018,0.29,0.031l3.278-20.714
				c-0.096-0.018-0.188-0.045-0.285-0.06c-0.49-0.078-0.976-0.107-1.459-0.116L264.969,171.808z"/>
		</g>
	</g>
</g>
</svg>
